<?xml version="1.0" encoding="UTF-8"?>
<svg id="funny_Image" data-name="funny Image" xmlns="http://www.w3.org/2000/svg" version="1.1" viewBox="0 0 706 936">
  <defs>
    <style>
      .cls-1 {
        fill: #000;
        stroke-width: 0px;
      }
    </style>
  </defs>
  <path id="laptoplower" class="cls-1" d="M386.99,488.37c3.86,0,3.86-3.5,3.86-7.82h161.98c0,19.08-8.52,22.21-17.03,22.21H195.55c-8.52,0-17.03-3.12-17.03-22.21h161.98c0,4.32,0,7.82,3.86,7.82h42.64Z"/>
  <g id="upperGuest">
    <ellipse class="cls-1" cx="439.83" cy="323.15" rx="8.12" ry="8.86"/>
    <path class="cls-1" d="M446.58,336.72c0,1.53-3.02,2.77-6.75,2.77-3.73,0-6.75-1.24-6.75-2.77-5.53,1.53-11.06,6.34-12.79,12.69,0,2.85,9.77,5.15,19.53,5.15,9.77,0,19.53-2.3,19.53-5.15-1.72-6.34-7.25-11.16-12.79-12.69Z"/>
  </g>
  <g id="lowerGuest">
    <ellipse class="cls-1" cx="439.83" cy="396.09" rx="8.12" ry="8.86"/>
    <path class="cls-1" d="M446.58,409.65c0,1.53-3.02,2.77-6.75,2.77-3.73,0-6.75-1.24-6.75-2.77-5.53,1.53-11.06,6.34-12.79,12.69,0,2.85,9.77,5.15,19.53,5.15,9.77,0,19.53-2.3,19.53-5.15-1.72-6.34-7.25-11.16-12.79-12.69Z"/>
  </g>
  <path id="talkbox" class="cls-1" d="M412.22,259.79l-86.32.22c-3.01,0-5.44,2.92-5.44,6.53v44.7c0,3.61,2.43,6.53,5.44,6.53,3.61,0,7.87.78,6.53,5.44l-1.53,5.26,30.63-10.75,50.69-.16c3.01,0,5.44-2.92,5.44-6.53v-44.7c0-3.61-2.43-6.53-5.44-6.53ZM373.95,308.12c0,1.1-.9,2-2,2h-33.84c-1.1,0-2-.9-2-2v-6.37c0-1.1.9-2,2-2h33.84c1.1,0,2,.9,2,2v6.37ZM401.58,293.13c0,1.1-.9,2-2,2h-61.46c-1.1,0-2-.9-2-2v-6.37c0-1.1.9-2,2-2h61.46c1.1,0,2,.9,2,2v6.37ZM401.58,277.83c0,1.1-.9,2-2,2h-61.46c-1.1,0-2-.9-2-2v-6.37c0-1.1.9-2,2-2h61.46c1.1,0,2,.9,2,2v6.37Z"/>
  <path id="laptopMonitor" class="cls-1" d="M489.18,277.82h-64.07v21.93h51.71c1.86,0,3.36,1.11,3.36,2.48v65.72h-79.32v-42.1c0-.8-.65-1.44-1.44-1.44s-1.44.64-1.44,1.44v114.06h-144.32c-1.37,0-2.48-1.5-2.48-3.36v-134.32c0-1.37,1.5-2.48,3.36-2.48h60.68v-21.93h-73.04c-7.56,0-13.68,6.12-13.68,13.68v170.16h274.38v-170.16c0-7.56-6.12-13.68-13.68-13.68ZM477.69,439.9h-76.84v-69.08h79.32v65.72c0,1.86-1.11,3.36-2.48,3.36Z"/>
  <g>
    <ellipse class="cls-1" cx="325.85" cy="358.73" rx="17.14" ry="18.7"/>
    <path class="cls-1" d="M340.1,377.37c0,3.23-6.37,5.84-14.25,5.84s-14.25-2.61-14.25-5.84c-8.64,2.4-17.27,8.58-22.65,17.06,8.47,11.43,22.06,18.84,37.37,18.84s28.35-7.12,36.85-18.16c-5.35-8.83-14.2-15.28-23.07-17.74Z"/>
    <path class="cls-1" d="M326.32,414.93c-26.56,0-48.16-21.6-48.16-48.16,0-20.73,13.2-39.08,32.83-45.67,1.13-.38,2.36.23,2.73,1.36.38,1.13-.23,2.36-1.36,2.73-17.88,6-29.89,22.7-29.89,41.57,0,24.17,19.67,43.84,43.84,43.84s43.84-19.67,43.84-43.84c0-11.13-4.17-21.74-11.76-29.88-.81-.87-.76-2.24.11-3.05.87-.81,2.24-.77,3.05.11,8.33,8.94,12.92,20.6,12.92,32.82,0,26.56-21.6,48.16-48.16,48.16Z"/>
  </g>
  <path id="Body" class="cls-1" d="M320.02,555.99c-39.2,0-70.92,19.07-70.92,42.63,0,19.17,14.78,30.82,24.39,34.68l-51.2,5.49c-6.75.72-16.22,8.76-16.22,21.44,0,11.54,8.11,21.94,18.93,20.88l105.52-10.4c15.65-1.54,26.12-29.28.15-45.36,8.91-3.09,29.07,0,43.79,6.59l-9.98-27.06c-5.7-15.45,4.05-22.09,9.98-24.29,11.03-4.1,21.06,0,25.49,12.15l7.65,20.99c16.66-55.23-39.17-57.75-87.59-57.75Z"/>
  <path id="Arm" class="cls-1" d="M469.45,613.32l-56.24,17.91c-1.44.46-4.78-.17-5.37-1.79,0,0-12.81-34.49-12.81-34.49-3.36-9.05-11.17-11.55-17.92-9.05-5.17,1.92-10.9,8.96-7.61,17.93,0,0,18.81,51.22,18.81,51.22,2.3,6.27,11.82,8.03,17.37,6.27l77.19-24.54h0c6.65-1.89,8.06-9.2,6.65-14.51h0c-1.04-4.91-6.44-13.3-20.08-8.95Z"/>
  <path id="headdown" class="cls-1" d="M412.89,664.6l68.61-21.81c-1.3,20.17-18.07,36.13-38.57,36.13-12.13,0-22.95-5.59-30.04-14.33Z"/>
  <path id="headup" class="cls-1" d="M465.84,609.15l-53.63,17.08-2.27-6.11c6.79-11.09,19.02-18.49,32.98-18.49,8.58,0,16.5,2.79,22.91,7.52Z"/>
  <path id="ex1" class="cls-1" d="M395.85,523.16c-3.15-7.4,6.44-10.85,8.75-3.67,0,0,19.15,59.58,19.15,59.58.73,2.28-2.29,3.29-3.05,1.54,0,0-24.86-57.44-24.86-57.44Z"/>
  <path id="ex2" class="cls-1" d="M453.25,522.87c.81-8,10.88-6.4,9.44,1,0,0-11.96,61.43-11.96,61.43-.46,2.35-3.59,1.78-3.41-.12l5.94-62.31Z"/>
  <path id="ex3" class="cls-1" d="M507.01,543.41c5.05-6.26,12.61.58,7.36,6,0,0-43.58,44.91-43.58,44.91-1.67,1.72-3.98-.47-2.79-1.97l39.01-48.95Z"/>
  <g>
    <path class="cls-1" d="M170.13,246.5h-19.6V107.9h27.32l22.37,82.96v-82.96h19.4v138.6h-22.37l-27.13-100.39v100.39Z"/>
    <path class="cls-1" d="M266.55,106.31c21.38,0,33.07,12.67,33.07,34.85v72.07c0,22.18-11.68,34.85-33.07,34.85s-33.07-12.67-33.07-34.85v-72.07c0-22.18,11.68-34.85,33.07-34.85ZM266.55,228.28c6.93,0,11.29-3.76,11.29-13.66v-74.84c0-9.9-4.36-13.66-11.29-13.66s-11.29,3.76-11.29,13.66v74.84c0,9.9,4.36,13.66,11.29,13.66Z"/>
    <path class="cls-1" d="M374.66,107.9v19.8h-22.77v118.8h-21.78v-118.8h-22.77v-19.8h67.32Z"/>
    <path class="cls-1" d="M405.94,107.9v138.6h-21.78V107.9h21.78Z"/>
    <path class="cls-1" d="M484.94,213.23c0,22.18-11.09,34.85-32.47,34.85s-32.47-12.67-32.47-34.85v-72.07c0-22.18,11.09-34.85,32.47-34.85s32.47,12.67,32.47,34.85v13.46h-20.59v-14.85c0-9.9-4.36-13.66-11.29-13.66s-11.29,3.76-11.29,13.66v74.84c0,9.9,4.36,13.46,11.29,13.46s11.29-3.56,11.29-13.46v-19.8h20.59v18.41Z"/>
    <path class="cls-1" d="M549.88,166.31v19.8h-29.9v40.59h37.62v19.8h-59.4V107.9h59.4v19.8h-37.62v38.61h29.9Z"/>
  </g>
  <g>
    <path class="cls-1" d="M103.84,733.86v6.3h-7.25v37.8h-6.93v-37.8h-7.25v-6.3h21.42Z"/>
    <path class="cls-1" d="M108.44,777.96v-44.1h6.93v18.9h7.88v-18.9h7.06v44.1h-7.06v-18.9h-7.88v18.9h-6.93Z"/>
    <path class="cls-1" d="M153.36,752.44v6.3h-9.51v12.92h11.97v6.3h-18.9v-44.1h18.9v6.3h-11.97v12.29h9.51Z"/>
    <path class="cls-1" d="M183.98,733.86c6.93,0,10.33,3.84,10.33,10.9v22.3c0,7.06-3.4,10.9-10.33,10.9h-10.96v-44.1h10.96ZM179.95,771.66h3.91c2.21,0,3.53-1.13,3.53-4.28v-22.93c0-3.15-1.32-4.28-3.53-4.28h-3.91v31.5Z"/>
    <path class="cls-1" d="M216.74,752.44v6.3h-9.51v12.92h11.97v6.3h-18.9v-44.1h18.9v6.3h-11.97v12.29h9.51Z"/>
    <path class="cls-1" d="M244.46,733.86h9.64v44.1h-6.55v-31.63l-4.79,31.63h-6.55l-5.17-31.19v31.19h-6.05v-44.1h9.64l5.1,31.31,4.73-31.31Z"/>
    <path class="cls-1" d="M270.66,733.35c6.8,0,10.52,4.03,10.52,11.09v22.93c0,7.06-3.72,11.09-10.52,11.09s-10.52-4.03-10.52-11.09v-22.93c0-7.06,3.72-11.09,10.52-11.09ZM270.66,772.16c2.21,0,3.59-1.2,3.59-4.35v-23.82c0-3.15-1.39-4.35-3.59-4.35s-3.59,1.2-3.59,4.35v23.82c0,3.15,1.39,4.35,3.59,4.35Z"/>
    <path class="cls-1" d="M296.56,733.35c6.74,0,10.21,4.03,10.21,11.09v1.39h-6.55v-1.83c0-3.15-1.26-4.35-3.47-4.35s-3.47,1.2-3.47,4.35c0,9.07,13.55,10.77,13.55,23.37,0,7.06-3.53,11.09-10.33,11.09s-10.33-4.03-10.33-11.09v-2.71h6.55v3.15c0,3.15,1.39,4.28,3.59,4.28s3.59-1.13,3.59-4.28c0-9.07-13.55-10.77-13.55-23.38,0-7.06,3.47-11.09,10.21-11.09Z"/>
    <path class="cls-1" d="M336.56,777.96h-9.51l-4.91-44.1h6.74l3.72,34.78,3.34-34.78h6.68l3.46,35.03,3.59-35.03h6.05l-4.91,44.1h-9.2l-2.52-23.5-2.52,23.5Z"/>
    <path class="cls-1" d="M367.68,733.86v44.1h-6.93v-44.1h6.93Z"/>
    <path class="cls-1" d="M381.23,733.86v37.8h11.4v6.3h-18.33v-44.1h6.93Z"/>
    <path class="cls-1" d="M404.16,733.86v37.8h11.4v6.3h-18.33v-44.1h6.93Z"/>
    <path class="cls-1" d="M451.6,767.38c0,7.06-3.53,11.09-10.33,11.09s-10.33-4.03-10.33-11.09v-22.93c0-7.06,3.53-11.09,10.33-11.09s10.33,4.03,10.33,11.09v4.29h-6.55v-4.73c0-3.15-1.39-4.35-3.59-4.35s-3.59,1.2-3.59,4.35v23.82c0,3.15,1.39,4.28,3.59,4.28s3.59-1.13,3.59-4.28v-6.3h6.55v5.86Z"/>
    <path class="cls-1" d="M467.34,733.35c6.8,0,10.52,4.03,10.52,11.09v22.93c0,7.06-3.72,11.09-10.52,11.09s-10.52-4.03-10.52-11.09v-22.93c0-7.06,3.72-11.09,10.52-11.09ZM467.34,772.16c2.21,0,3.59-1.2,3.59-4.35v-23.82c0-3.15-1.39-4.35-3.59-4.35s-3.59,1.2-3.59,4.35v23.82c0,3.15,1.39,4.35,3.59,4.35Z"/>
    <path class="cls-1" d="M490.09,777.96h-6.24v-44.1h8.69l7.12,26.4v-26.4h6.17v44.1h-7.12l-8.63-31.94v31.94Z"/>
    <path class="cls-1" d="M531.79,733.86v6.3h-7.25v37.8h-6.93v-37.8h-7.25v-6.3h21.42Z"/>
    <path class="cls-1" d="M543.32,733.86v44.1h-6.93v-44.1h6.93Z"/>
    <path class="cls-1" d="M556.11,777.96h-6.24v-44.1h8.69l7.12,26.4v-26.4h6.17v44.1h-7.12l-8.63-31.94v31.94Z"/>
    <path class="cls-1" d="M585.03,767.88c0,3.15,1.39,4.28,3.59,4.28s3.59-1.13,3.59-4.28v-34.02h6.55v33.58c0,7.06-3.53,11.09-10.33,11.09s-10.33-4.03-10.33-11.09v-33.58h6.93v34.02Z"/>
    <path class="cls-1" d="M621.5,752.44v6.3h-9.51v12.92h11.97v6.3h-18.9v-44.1h18.9v6.3h-11.97v12.29h9.51Z"/>
    <path class="cls-1" d="M109.07,821.88c0,3.15,1.39,4.28,3.59,4.28s3.59-1.13,3.59-4.28v-34.02h6.55v33.58c0,7.06-3.53,11.09-10.33,11.09s-10.33-4.03-10.33-11.09v-33.58h6.93v34.02Z"/>
    <path class="cls-1" d="M135.28,831.96h-6.24v-44.1h8.69l7.12,26.4v-26.4h6.17v44.1h-7.12l-8.63-31.94v31.94Z"/>
    <path class="cls-1" d="M176.98,787.86v6.3h-7.25v37.8h-6.93v-37.8h-7.25v-6.3h21.42Z"/>
    <path class="cls-1" d="M188.51,787.86v44.1h-6.93v-44.1h6.93Z"/>
    <path class="cls-1" d="M202.05,787.86v37.8h11.4v6.3h-18.33v-44.1h6.93Z"/>
    <path class="cls-1" d="M248.8,787.86h9.64v44.1h-6.55v-31.63l-4.79,31.63h-6.55l-5.17-31.19v31.19h-6.05v-44.1h9.64l5.1,31.31,4.73-31.31Z"/>
    <path class="cls-1" d="M275.01,787.35c6.8,0,10.52,4.03,10.52,11.09v22.93c0,7.06-3.72,11.09-10.52,11.09s-10.52-4.03-10.52-11.09v-22.93c0-7.06,3.72-11.09,10.52-11.09ZM275.01,826.16c2.21,0,3.59-1.2,3.59-4.35v-23.82c0-3.15-1.39-4.35-3.59-4.35s-3.59,1.2-3.59,4.35v23.82c0,3.15,1.39,4.35,3.59,4.35Z"/>
    <path class="cls-1" d="M305.44,826.54v-6.93c0-4.1-1.39-5.61-4.54-5.61h-2.39v17.96h-6.93v-44.1h10.46c7.18,0,10.27,3.34,10.27,10.14v3.46c0,4.54-1.45,7.5-4.54,8.95,3.47,1.45,4.6,4.79,4.6,9.39v6.8c0,2.14.06,3.72.76,5.36h-7.06c-.38-1.13-.63-1.83-.63-5.42ZM298.51,807.7h2.71c2.58,0,4.16-1.13,4.16-4.66v-4.35c0-3.15-1.07-4.54-3.53-4.54h-3.34v13.55Z"/>
    <path class="cls-1" d="M333.91,831.96l-1.2-8h-8.51l-1.2,8h-6.36l7.06-44.1h10.14l7.06,44.1h-6.99ZM331.77,817.97l-3.34-22.3-3.34,22.3h6.68Z"/>
    <path class="cls-1" d="M352.62,787.86v37.8h11.4v6.3h-18.33v-44.1h6.93Z"/>
    <path class="cls-1" d="M385.07,806.44v6.3h-9.51v12.92h11.97v6.3h-18.9v-44.1h18.9v6.3h-11.97v12.29h9.51Z"/>
    <path class="cls-1" d="M411.65,787.86v44.1h-6.93v-44.1h6.93Z"/>
    <path class="cls-1" d="M437.67,787.86h9.64v44.1h-6.55v-31.63l-4.79,31.63h-6.55l-5.17-31.19v31.19h-6.05v-44.1h9.64l5.1,31.31,4.72-31.31Z"/>
    <path class="cls-1" d="M474.46,798.76v5.73c0,7.06-3.4,10.9-10.33,10.9h-3.28v16.57h-6.93v-44.1h10.21c6.93,0,10.33,3.84,10.33,10.9ZM460.85,809.09h3.28c2.21,0,3.4-1.01,3.4-4.16v-6.62c0-3.15-1.2-4.16-3.4-4.16h-3.28v14.93Z"/>
    <path class="cls-1" d="M493.42,826.54v-6.93c0-4.1-1.39-5.61-4.54-5.61h-2.39v17.96h-6.93v-44.1h10.46c7.18,0,10.27,3.34,10.27,10.14v3.46c0,4.54-1.45,7.5-4.54,8.95,3.46,1.45,4.6,4.79,4.6,9.39v6.8c0,2.14.06,3.72.76,5.36h-7.06c-.38-1.13-.63-1.83-.63-5.42ZM486.49,807.7h2.71c2.58,0,4.16-1.13,4.16-4.66v-4.35c0-3.15-1.07-4.54-3.53-4.54h-3.34v13.55Z"/>
    <path class="cls-1" d="M516.42,787.35c6.8,0,10.52,4.03,10.52,11.09v22.93c0,7.06-3.72,11.09-10.52,11.09s-10.52-4.03-10.52-11.09v-22.93c0-7.06,3.72-11.09,10.52-11.09ZM516.42,826.16c2.21,0,3.59-1.2,3.59-4.35v-23.82c0-3.15-1.39-4.35-3.59-4.35s-3.59,1.2-3.59,4.35v23.82c0,3.15,1.39,4.35,3.59,4.35Z"/>
    <path class="cls-1" d="M548.67,787.86h6.36l-6.8,44.1h-10.33l-6.8-44.1h6.99l5.29,35.97,5.29-35.97Z"/>
    <path class="cls-1" d="M576.27,806.44v6.3h-9.51v12.92h11.97v6.3h-18.9v-44.1h18.9v6.3h-11.97v12.29h9.51Z"/>
    <path class="cls-1" d="M593.91,787.35c6.74,0,10.21,4.03,10.21,11.09v1.39h-6.55v-1.83c0-3.15-1.26-4.35-3.47-4.35s-3.46,1.2-3.46,4.35c0,9.07,13.55,10.77,13.55,23.37,0,7.06-3.53,11.09-10.33,11.09s-10.33-4.03-10.33-11.09v-2.71h6.55v3.15c0,3.15,1.39,4.28,3.59,4.28s3.59-1.13,3.59-4.28c0-9.07-13.55-10.77-13.55-23.38,0-7.06,3.47-11.09,10.21-11.09Z"/>
  </g>
</svg>